<?xml version="1.0" encoding="UTF-8"?>
<svg id="Foreground" xmlns="http://www.w3.org/2000/svg" viewBox="0 0 2870.25 1770.55">
  <defs>
    <style>
      .cls-1 {
        fill: #fff;
      }
    </style>
  </defs>
  <g id="Snippet_Group_" data-name="Snippet&amp;lt;Group&amp;gt;">
    <path class="cls-1" d="M835.4,280.1v390.59c-18.13-24.64-41.98-44.68-69.54-58.06v-326.98c0-34.21-18.25-52.61-52.53-52.61h-366.39c-35.21,0-52.45,18.77-52.45,52.61v534.95c0,33.83,17.24,52.61,52.45,52.61h163.59c13.46,28.16,33.57,52.45,58.28,70.79h-228.83c-74.99,0-115.11-40.96-115.11-117.85V280.1c0-76.88,40.13-117.66,115.11-117.66h380.31c75.36,0,115.11,40.5,115.11,117.66Z"/>
    <path class="cls-1" d="M681.55,479.93c0,12.14-9.06,21.69-21.22,21.69h-260.04c-12.52,0-21.58-9.55-21.58-21.69s9.06-21.14,21.58-21.14h260.04c12.16,0,21.22,9.18,21.22,21.14Z"/>
    <path class="cls-1" d="M681.55,357.47c0,12.05-9.06,21.6-21.22,21.6h-260.04c-12.52,0-21.58-9.55-21.58-21.6s9.06-21.04,21.58-21.04h260.04c12.16,0,21.22,9.18,21.22,21.04Z"/>
  </g>
  <g id="Scissors">
    <path class="cls-1" d="M568.28,577.78c18.09-17.93,44.06-9.23,71.77,24.2l86.53,104.44-80.66-2.93-77.63-125.71ZM729.9,873.16c7.23-12.7,9.83-17.75,3.61-27.83l-18.87-30.55c12.28-1.77,22.89-7.04,33.02-15.79.81,1.45,1.77,3.03,2.86,4.75l14.5,23.89c2.32,3.72,4.01,5.23,6.71,6.81,11.62,6.8,23.14-1.78,49.89,13.88,32.4,18.97,43.22,60.16,24.57,92.92-18.71,32.85-59.35,44.03-91.75,25.07-32.15-18.82-43.39-60.05-24.54-93.14ZM820.4,926.03c10.4-18.27,4.14-41.21-13.64-51.61-17.78-10.41-40.5-4.44-50.91,13.83-10.36,18.19-4.28,41.45,13.5,51.86,17.78,10.41,40.68,4.12,51.04-14.07Z"/>
    <path class="cls-1" d="M913.84,686.36c-32.15-18.82-73.12-7.83-91.97,25.26-7.23,12.7-10.15,17.34-21.96,17.09l-311.14-11.31c-6.18,24.68,14.15,43.3,56.55,50.92l146.73,26.31c20.68,3.72,33.19-.56,46.85-13.96l8.96-8.86c6.04-6.35,10.88-8.13,25.11-7.53l27.56.95c4.24.34,6.57.73,9.27,2.32,11.62,6.8,10,21.3,36.75,36.96,32.4,18.97,72.95,7.95,91.61-24.81,18.71-32.85,8.07-74.37-24.33-93.34ZM898.88,712.64c17.78,10.41,23.86,33.66,13.41,52.02-10.27,18.03-33.13,24.24-50.91,13.83-17.78-10.41-23.91-33.59-13.64-51.61,10.45-18.36,33.36-24.64,51.14-14.24ZM712.89,751.69c5.49,3.21,7.86,11.17,4.51,17.05-3.49,6.14-11.22,7.97-16.87,4.66-6.05-3.54-8.28-11.19-4.78-17.33,3.44-6.05,11.09-7.92,17.14-4.38Z"/>
  </g>
</svg>